<?xml version="1.0" standalone="no"?><!DOCTYPE svg PUBLIC "-//W3C//DTD SVG 1.1//EN" "http://www.w3.org/Graphics/SVG/1.1/DTD/svg11.dtd"><svg class="icon" width="200px" height="200.00px" viewBox="0 0 1024 1024" version="1.1" xmlns="http://www.w3.org/2000/svg"><path fill="#333333" d="M543.744 442.1632a20.48 20.48 0 0 1-12.9024-4.5056l-112.4352-90.5216-109.568 90.3168a20.48 20.48 0 0 1-33.5872-15.7696V81.92a20.48 20.48 0 0 1 20.48-20.48h247.808a20.48 20.48 0 0 1 20.48 20.48v339.7632a20.48 20.48 0 0 1-20.48 20.48z m-125.5424-141.9264a20.48 20.48 0 0 1 12.9024 4.5056l92.16 74.1376V102.4h-206.848v275.6608l88.8832-73.3184a20.48 20.48 0 0 1 12.9024-4.5056z"  /><path fill="#333333" d="M530.0224 778.24H268.9024A105.0624 105.0624 0 0 1 163.84 673.1776V166.5024A105.0624 105.0624 0 0 1 268.9024 61.44h445.2352A105.0624 105.0624 0 0 1 819.2 166.5024v322.56a20.48 20.48 0 0 1-40.96 0V166.5024A64.1024 64.1024 0 0 0 714.1376 102.4H268.9024A64.1024 64.1024 0 0 0 204.8 166.5024v506.6752A64.1024 64.1024 0 0 0 268.9024 737.28h261.12a20.48 20.48 0 0 1 0 40.96z"  /><path fill="#333333" d="M530.0224 880.64H268.9024A105.0624 105.0624 0 0 1 163.84 775.5776v-133.12a20.48 20.48 0 0 1 40.96 0v133.12A64.1024 64.1024 0 0 0 268.9024 839.68h261.12a20.48 20.48 0 0 1 0 40.96zM768 892.5184A175.7184 175.7184 0 1 1 943.7184 716.8a175.9232 175.9232 0 0 1-175.7184 175.7184z m0-310.4768A134.7584 134.7584 0 1 0 902.7584 716.8a134.9632 134.9632 0 0 0-134.7584-134.7584z"  /><path fill="#333333" d="M819.2 807.936a20.48 20.48 0 0 1-14.5408-5.9392l-55.9104-56.5248a20.48 20.48 0 0 1-5.9392-14.5408v-94.208a20.48 20.48 0 1 1 40.96 0v85.6064l50.3808 50.3808a20.48 20.48 0 0 1-14.9504 35.2256z"  /></svg>