<?xml version="1.0" standalone="no"?><!DOCTYPE svg PUBLIC "-//W3C//DTD SVG 1.1//EN" "http://www.w3.org/Graphics/SVG/1.1/DTD/svg11.dtd"><svg class="icon" width="200px" height="172.83px" viewBox="0 0 1185 1024" version="1.1" xmlns="http://www.w3.org/2000/svg"><path fill="#333333" d="M927.093534 833.246666l-40.898808-51.837488c134.766692-79.857752 223.353833-193.124279 223.353833-241.028153 0-79.803867-231.652142-327.082694-517.458832-327.082695a583.037027 583.037027 0 0 0-141.286791 18.051517L406.994331 175.84817a633.419616 633.419616 0 0 1 185.095396-28.289689c325.789451 0 592.413038 293.404493 592.413038 391.583186 0 64.123296-101.627341 199.105528-256.493184 293.135067l-0.916047 0.862162z m-335.003807-444.983342l-47.957759-65.362654c15.788341-2.963682 31.899993-4.31081 47.957759-3.879729 118.385614-3.771959 217.53424 90.473121 221.84505 210.852485a203.901304 203.901304 0 0 1-35.24087 113.535953l-48.28107-65.632079c6.142904-15.24949 9.376011-31.468912 9.483781-47.957759a146.890844 146.890844 0 0 0-45.317388-101.681227 141.987298 141.987298 0 0 0-102.758928-39.282254l0.269425-0.538851z m371.10684 628.677725a38.096782 38.096782 0 0 1-51.514178-8.72939L212.361268 55.414921a34.486478 34.486478 0 0 1 8.62162-49.089346 38.042897 38.042897 0 0 1 50.652015 8.406079l700.506594 953.120048a34.163168 34.163168 0 0 1-8.94493 49.089347z m-371.10684-346.696879c8.244424-0.21554 16.434962-1.023817 24.571616-2.42483l44.724652 60.243567a229.011771 229.011771 0 0 1-69.296268 11.477531c-118.439499 3.879729-217.695895-90.419236-221.84505-210.90637 0.754392-47.957759 18.320942-94.083424 49.466543-130.132571l44.994077 60.243567c-12.609119 20.853542-19.398644 44.832422-19.506414 69.296268 1.239358 38.689518 17.512665 75.277516 45.263503 101.735111 27.804723 26.40371 64.769917 40.575497 102.812814 39.228369l-1.185473 1.239358zM311.617664 283.726186C169.1454 357.225493 74.630895 471.138642 74.630895 540.111599c0 81.905386 231.921568 327.082694 517.782143 327.082694a534.001565 534.001565 0 0 0 160.793206-25.864859l42.946442 53.885123a601.627394 601.627394 0 0 1-203.739648 37.396275C266.569702 932.610832 0 638.613603 0 541.027646c0-82.875319 107.770245-219.312449 270.718856-307.57628l40.306072 51.190867 0.538851-0.916047z"  /></svg>