<?xml version="1.0" standalone="no"?><!DOCTYPE svg PUBLIC "-//W3C//DTD SVG 1.1//EN" "http://www.w3.org/Graphics/SVG/1.1/DTD/svg11.dtd"><svg class="icon" width="200px" height="200.00px" viewBox="0 0 1024 1024" version="1.1" xmlns="http://www.w3.org/2000/svg"><path fill="#333333" d="M876.68736 909.9264c-3.50208 4.5056-11.28448 11.6736-24.3712 11.6736H158.02368c-13.08672 0-20.86912-7.168-24.3712-11.6736-3.4816-4.3008-9.0112-13.5168-6.3488-26.2144l26.23488-124.3136a145.26464 145.26464 0 0 1 65.31072-92.9792l187.00288-115.83488A226.9184 226.9184 0 0 0 505.18016 573.44a226.9184 226.9184 0 0 0 99.26656-22.8352l187.02336 115.8144a145.28512 145.28512 0 0 1 65.3312 92.9792l26.23488 124.3136c2.6624 12.6976-2.8672 21.9136-6.3488 26.2144zM399.21664 144.01536A124.0064 124.0064 0 0 1 492.56448 102.4h25.21088c36.08576 0 69.24288 14.78656 93.34784 41.61536a124.02688 124.02688 0 0 1 31.45728 97.28l-12.61568 117.59616A125.27616 125.27616 0 0 1 505.18016 471.04a125.27616 125.27616 0 0 1-124.80512-112.14848l-12.5952-117.61664a124.0064 124.0064 0 0 1 31.4368-97.25952zM983.16288 862.6176l-26.19392-124.3136a246.64064 246.64064 0 0 0-111.63648-159.1296l-157.4912-97.5872a226.87744 226.87744 0 0 0 43.95008-111.77984l12.5952-117.59616C758.82496 117.47328 653.25056 0 517.77536 0h-25.21088c-135.4752 0-241.0496 117.47328-226.6112 252.2112l12.5952 117.59616c4.48512 41.92256 20.2752 80.05632 43.97056 111.8208L165.00736 579.1744a246.64064 246.64064 0 0 0-111.63648 159.1296L27.17696 862.6176C9.54368 945.7664 73.03168 1024 158.02368 1024h694.29248c84.992 0 148.48-78.2336 130.84672-161.3824z"  /><path fill="#333333" d="M699.74016 839.68h-102.4a51.2 51.2 0 1 1 0-102.4h102.4a51.2 51.2 0 0 1 0 102.4"  /></svg>