<?xml version="1.0" standalone="no"?><!DOCTYPE svg PUBLIC "-//W3C//DTD SVG 1.1//EN" "http://www.w3.org/Graphics/SVG/1.1/DTD/svg11.dtd"><svg class="icon" width="200px" height="127.28px" viewBox="0 0 1609 1024" version="1.1" xmlns="http://www.w3.org/2000/svg"><path fill="#333333" d="M804.352 0C362.496 0 0.950857 383.853714 0.950857 511.780571c0 170.861714 361.545143 511.780571 803.401143 511.780572 441.782857 0 803.328-383.780571 803.328-511.780572C1607.68 383.853714 1246.208 0 804.352 0z m0 938.569143c-394.459429 0-715.849143-341.357714-715.849143-426.788572 0-85.430857 321.389714-426.349714 715.849143-426.349714 394.459429 0 713.801143 341.357714 713.801143 426.422857 0 84.992-320.950857 426.715429-713.874286 426.715429z m0-149.650286c-157.476571 1.974857-286.793143-121.270857-289.206857-275.529143-3.657143-115.712 64.731429-221.988571 172.763428-268.726857a294.473143 294.473143 0 0 1 318.902858 55.954286 280.137143 280.137143 0 0 1 66.998857 310.784c-44.324571 107.300571-150.601143 177.517714-268.653715 177.517714h-0.804571z m0-468.845714a199.826286 199.826286 0 0 0-140.873143 54.637714c-37.668571 35.84-59.245714 84.845714-59.977143 136.338286 0.585143 51.492571 22.162286 100.644571 59.830857 136.484571 37.741714 35.913143 88.502857 55.588571 141.019429 54.857143a199.826286 199.826286 0 0 0 140.8-54.710857c37.668571-35.84 59.245714-84.845714 59.977143-136.265143v-1.974857a191.853714 191.853714 0 0 0-59.977143-136.265143 199.826286 199.826286 0 0 0-140.8-54.637714v1.536z"  /></svg>